<!DOCTYPE svg PUBLIC "-//W3C//DTD SVG 1.1//EN" "http://www.w3.org/Graphics/SVG/1.1/DTD/svg11.dtd">
<!-- Uploaded to: SVG Repo, www.svgrepo.com, Transformed by: SVG Repo Mixer Tools -->
<svg fill="#ffffff" height="800px" width="800px" version="1.1" id="Layer_1" xmlns="http://www.w3.org/2000/svg" xmlns:xlink="http://www.w3.org/1999/xlink" viewBox="0 0 511.999 511.999" xml:space="preserve" transform="matrix(-1, 0, 0, 1, 0, 0)" stroke="#ffffff">
<g id="SVGRepo_bgCarrier" stroke-width="0"/>
<g id="SVGRepo_tracerCarrier" stroke-linecap="round" stroke-linejoin="round"/>
<g id="SVGRepo_iconCarrier"> <g> <g> <path d="M511.794,368.156l-10.347-74.763v-0.001l-2.567-18.548l-21.367-154.405c0-0.001-0.001-0.003-0.001-0.006l-10-72.258 l7.146-2.96c10.969-4.544,16.179-17.119,11.635-28.091C481.749,6.156,469.17,0.947,458.202,5.489l-22.493,9.316 c-9.04,3.744-14.41,13.119-13.069,22.811l33.936,245.218l-182.681,75.667c-6.428-8.997-14.329-16.702-23.288-22.859l142.35-58.964 c9.04-3.744,14.41-13.119,13.069-22.811L380.161,66.959c-0.913-6.596-4.83-12.395-10.608-15.706 c-5.778-3.314-12.763-3.759-18.915-1.21L13.272,189.784c-6.152,2.548-10.777,7.803-12.521,14.231 c-1.744,6.425-0.413,13.298,3.606,18.607l109.998,145.33c-13.387,24.311-16.051,54.251-4.631,81.826 c14.69,35.461,48.983,58.373,87.366,58.373c12.428,0,24.589-2.427,36.147-7.214c41.323-17.118,64.055-60.343,57.081-102.695 l172.353-71.391l6.533,47.201c1.489,10.763,10.704,18.554,21.27,18.554c0.982,0,1.975-0.067,2.974-0.206 C505.208,390.772,513.422,379.918,511.794,368.156z M55.437,218.861l285.946-118.444l19.775,142.891l-218.664,90.574 L55.437,218.861z M216.78,461.211c-6.315,2.616-12.94,3.942-19.692,3.942c-20.93,0-39.63-12.494-47.64-31.829 c-10.873-26.253,1.64-56.46,27.89-67.331c6.315-2.616,12.94-3.943,19.692-3.943c20.93,0,39.628,12.495,47.637,31.83 C255.543,420.132,243.032,450.337,216.78,461.211z"/> </g> </g> </g>
</svg>